<svg id="visual" viewBox="0 0 900 900" width="900" height="900" xmlns="http://www.w3.org/2000/svg" xmlns:xlink="http://www.w3.org/1999/xlink" version="1.1"><g transform="translate(441.35242082479897 454.4602903701825)"><path d="M171.8 -240.1C220.9 -200.7 257.9 -148.3 280.7 -88.7C303.5 -29.1 312.3 37.6 292.1 93.4C271.8 149.2 222.7 194 169.2 229.8C115.7 265.6 57.9 292.3 -2.8 296.2C-63.5 300 -127 281.1 -176.3 243.9C-225.6 206.8 -260.7 151.4 -276.3 92.4C-292 33.3 -288.2 -29.6 -269.4 -87.6C-250.7 -145.7 -217 -199.1 -169.7 -239C-122.3 -278.9 -61.1 -305.5 0.1 -305.6C61.3 -305.7 122.7 -279.5 171.8 -240.1" fill="#FF0066"></path></g></svg>